<svg id="visual" viewBox="0 0 900 600" width="900" height="600" xmlns="http://www.w3.org/2000/svg" xmlns:xlink="http://www.w3.org/1999/xlink" version="1.1"><path d="M637 600L650 575C663 550 689 500 702.7 450C716.3 400 717.7 350 710.7 300C703.7 250 688.3 200 669.5 150C650.7 100 628.3 50 617.2 25L606 0L900 0L900 25C900 50 900 100 900 150C900 200 900 250 900 300C900 350 900 400 900 450C900 500 900 550 900 575L900 600Z" fill="#fa7268"></path><path d="M689 600L690.2 575C691.3 550 693.7 500 692.3 450C691 400 686 350 686.8 300C687.7 250 694.3 200 703.5 150C712.7 100 724.3 50 730.2 25L736 0L900 0L900 25C900 50 900 100 900 150C900 200 900 250 900 300C900 350 900 400 900 450C900 500 900 550 900 575L900 600Z" fill="#eb5967"></path><path d="M786 600L787.3 575C788.7 550 791.3 500 785.5 450C779.7 400 765.3 350 765 300C764.7 250 778.3 200 776.2 150C774 100 756 50 747 25L738 0L900 0L900 25C900 50 900 100 900 150C900 200 900 250 900 300C900 350 900 400 900 450C900 500 900 550 900 575L900 600Z" fill="#da3f67"></path><path d="M820 600L816.3 575C812.7 550 805.3 500 809.3 450C813.3 400 828.7 350 838.3 300C848 250 852 200 847 150C842 100 828 50 821 25L814 0L900 0L900 25C900 50 900 100 900 150C900 200 900 250 900 300C900 350 900 400 900 450C900 500 900 550 900 575L900 600Z" fill="#c62368"></path></svg>